# xmcd
#
# Track frame offsets:
#	182
#	17380
#	34902
#	56427
#	67922
#	79457
#	94810
#	109242
#	125820
#	146545
#
# Disc length: 2144 seconds
#
# Revision: 5
# Processed by: cddbd v1.5.2PL0 Copyright (c) Steve Scherf et al.
# Submitted via: audiograbber 1.83.01
#
DISCID=86085e0a
DTITLE=Various Artist - New Country - March 1994
DYEAR=1994
DGENRE=Country
TTITLE0=Merle Haggard - In My Next Life
TTITLE1=John Berry - Your Love Amazes Me
TTITLE2=Steve Wariner - Drivin' And Cryin'
TTITLE3=Marty Stuart - Shake Your Hips
TTITLE4=Claire Lynch - Paul And Peter Walked
TTITLE5=Blackhawk - Goodbye Says It All
TTITLE6=The Mavericks - O What A Thrill
TTITLE7=Boy Howdy - She'd Give Anything
TTITLE8=Andy Landis - Is She Still A Woman
TTITLE9=Stephen Bruton - The Face Of Love
EXTD=
EXTT0=
EXTT1=
EXTT2=
EXTT3=
EXTT4=
EXTT5=
EXTT6=
EXTT7=
EXTT8=
EXTT9=
PLAYORDER=
